HIERARCHY
ROOT Hips
{
	OFFSET 55.310501 45.591206 43.872097
	CHANNELS 6 Xposition Yposition Zposition Zrotation Xrotation Yrotation
	JOINT Chest
	{
		OFFSET -0.153500 1.163101 7.852402
		CHANNELS 6 Xposition Yposition Zposition Zrotation Xrotation Yrotation
		JOINT Chest2
		{
			OFFSET 0.000000 0.000000 3.343300
			CHANNELS 6 Xposition Yposition Zposition Zrotation Xrotation Yrotation
			JOINT Neck
			{
				OFFSET 0.000000 0.000000 7.785500
				CHANNELS 6 Xposition Yposition Zposition Zrotation Xrotation Yrotation
				JOINT Head
				{
					OFFSET 0.000000 0.000000 2.173901
					CHANNELS 6 Xposition Yposition Zposition Zrotation Xrotation Yrotation
					End Site
					{
						OFFSET 0.000000 0.000000 10.528198
					}
				}
			}
			JOINT LeftCollar
			{
				OFFSET 2.676300 -1.652401 4.938301
				CHANNELS 6 Xposition Yposition Zposition Zrotation Xrotation Yrotation
				JOINT LeftShoulder
				{
					OFFSET 4.299000 0.000000 0.000000
					CHANNELS 6 Xposition Yposition Zposition Zrotation Xrotation Yrotation
					JOINT LeftElbow
					{
						OFFSET 0.000000 0.000000 -10.245102
						CHANNELS 6 Xposition Yposition Zposition Zrotation Xrotation Yrotation
						JOINT LeftWrist
						{
							OFFSET 0.000000 0.000000 -12.703300
							CHANNELS 6 Xposition Yposition Zposition Zrotation Xrotation Yrotation
							End Site
							{
								OFFSET 0.000000 0.000000 -2.173901
							}
						}
					}
				}
			}
			JOINT RightCollar
			{
				OFFSET -2.534599 -1.686401 5.195000
				CHANNELS 6 Xposition Yposition Zposition Zrotation Xrotation Yrotation
				JOINT RightShoulder
				{
					OFFSET -4.144100 0.000000 0.000000
					CHANNELS 6 Xposition Yposition Zposition Zrotation Xrotation Yrotation
					JOINT RightElbow
					{
						OFFSET 0.000000 0.000000 -10.116501
						CHANNELS 6 Xposition Yposition Zposition Zrotation Xrotation Yrotation
						JOINT RightWrist
						{
							OFFSET 0.000000 0.000000 -12.937801
							CHANNELS 6 Xposition Yposition Zposition Zrotation Xrotation Yrotation
							End Site
							{
								OFFSET 0.000000 0.000000 -2.173901
							}
						}
					}
				}
			}
		}
	}
	JOINT LeftHip
	{
		OFFSET 2.175598 0.064499 -2.662899
		CHANNELS 6 Xposition Yposition Zposition Zrotation Xrotation Yrotation
		JOINT LeftKnee
		{
			OFFSET 0.000000 -0.000004 -18.585800
			CHANNELS 6 Xposition Yposition Zposition Zrotation Xrotation Yrotation
			JOINT LeftAnkle
			{
				OFFSET 0.000000 0.000000 -18.979500
				CHANNELS 6 Xposition Yposition Zposition Zrotation Xrotation Yrotation
				End Site
				{
					OFFSET 0.000000 -9.264000 0.000000
				}
			}
		}
	}
	JOINT RightHip
	{
		OFFSET -2.092400 -0.058102 -2.581200
		CHANNELS 6 Xposition Yposition Zposition Zrotation Xrotation Yrotation
		JOINT RightKnee
		{
			OFFSET 0.000000 -0.000004 -18.665001
			CHANNELS 6 Xposition Yposition Zposition Zrotation Xrotation Yrotation
			JOINT RightAnkle
			{
				OFFSET 0.000000 0.000000 -18.566601
				CHANNELS 6 Xposition Yposition Zposition Zrotation Xrotation Yrotation
				End Site
				{
					OFFSET 0.000000 -8.497601 0.000000
				}
			}
		}
	}
}
MOTION
Frames: 6
Frame Time: 0.041667
59.250301 68.357208 44.093090 559.688759 -1.189832 2.971634 -0.153493 1.163105 7.852403 -19.960251 2.684880 0.630819 -0.000001 -0.000003 3.343303 3.423183 -5.690187 0.289567 0.000002 0.000005 7.785504 65.232009 -0.902668 -13.883229 -0.000003 0.000001 2.173895 4.408899 -0.109986 7.891845 2.676300 -1.652389 4.938303 11.109284 -6.505670 9.868455 4.298998 0.000008 -0.000007 -26.691915 -14.318058 -108.727309 -0.000000 -0.000008 -10.245096 221.878463 189.074157 181.902090 0.000000 -0.000018 -12.703300 205.640890 177.913560 200.878869 -2.534595 -1.686401 5.194998 -0.376885 6.652408 10.480758 -4.144119 0.000003 -0.000007 -17.774413 13.869333 63.437383 -0.000004 0.000008 -10.116501 -26.714557 -13.272479 -15.814548 0.000003 -0.000003 -12.937798 -6.659023 -5.904432 4.052870 2.175594 0.064498 -2.662898 -206.992216 -15.936793 109.244798 -0.000010 -0.000006 -18.585796 0.757176 -178.587139 -73.348356 -0.000006 -0.000013 -18.979485 428.746656 -10.961929 39.505739 -2.092388 -0.058109 -2.581197 15.561191 -1.402225 -5.962953 0.000004 0.000005 -18.665005 -748.992151 18.205955 -11.049229 -0.000001 0.000001 -18.566603 722.315126 15.049864 5.348338
59.222095 68.355995 44.093391 559.731161 -1.167732 2.997239 -0.153489 1.163101 7.852408 -20.005098 2.536419 0.641791 0.000002 0.000009 3.343302 3.510321 -5.657054 0.297005 -0.000006 -0.000001 7.785503 65.207010 -0.843896 -13.920263 0.000013 0.000003 2.173901 4.428252 -0.058712 7.836753 2.676289 -1.652394 4.938297 10.931145 -6.360783 9.956878 4.298989 0.000004 0.000004 -26.852069 -14.184246 -109.004703 -0.000007 -0.000015 -10.245107 221.640677 189.015377 181.825318 -0.000007 -0.000009 -12.703301 205.935053 177.817459 201.000105 -2.534601 -1.686396 5.194997 -0.314877 6.835760 10.422980 -4.144094 -0.000001 -0.000003 -17.932283 13.683002 63.625616 0.000002 0.000001 -10.116502 -26.891449 -13.111516 -15.696328 0.000002 0.000013 -12.937797 -6.842701 -5.825585 4.143907 2.175608 0.064495 -2.662892 -207.082197 -15.906551 108.973387 -0.000013 -0.000004 -18.585808 0.873987 -178.571471 -73.531713 -0.000003 -0.000003 -18.979500 428.793211 -10.970390 39.543875 -2.092383 -0.058109 -2.581200 15.485388 -1.474191 -5.938857 -0.000017 -0.000001 -18.665005 -748.718233 18.317095 -11.054887 -0.000007 -0.000007 -18.566605 722.140273 14.909179 5.116601
59.194294 68.354507 44.093193 559.795583 -1.160005 3.005934 -0.153513 1.163102 7.852399 -20.074022 2.393440 0.689051 -0.000008 0.000010 3.343304 3.626472 -5.606777 0.307910 -0.000001 -0.000002 7.785497 65.167142 -0.822228 -13.948072 -0.000000 0.000001 2.173908 4.453138 -0.039021 7.776465 2.676291 -1.652398 4.938301 10.743170 -6.252286 9.950365 4.299002 -0.000008 -0.000008 -27.050829 -14.110145 -109.194548 0.000001 -0.000013 -10.245103 221.404352 188.939152 181.725120 0.000001 -0.000015 -12.703296 206.147335 177.695185 201.113445 -2.534598 -1.686400 5.194999 -0.290709 7.003242 10.417487 -4.144099 0.000003 0.000007 -18.074668 13.462912 63.753908 0.000000 -0.000008 -10.116493 -26.908299 -12.946052 -15.432947 0.000001 0.000007 -12.937809 -7.126717 -5.761653 4.074845 2.175587 0.064495 -2.662903 -207.197272 -15.885707 108.650080 -0.000009 -0.000007 -18.585806 1.011518 -178.548877 -73.750450 -0.000001 -0.000001 -18.979498 428.896647 -10.969371 39.542820 -2.092406 -0.058111 -2.581200 15.372352 -1.541790 -5.914656 -0.000002 -0.000000 -18.665009 -748.558789 18.453018 -11.005462 0.000000 -0.000009 -18.566601 722.054596 14.784691 4.972614
59.165798 68.353699 44.091297 559.879404 -1.161756 3.011516 -0.153506 1.163106 7.852399 -20.160495 2.249571 0.732954 -0.000007 0.000017 3.343303 3.740305 -5.536487 0.316289 -0.000002 0.000007 7.785491 65.107515 -0.792365 -13.978845 -0.000006 -0.000001 2.173912 4.487424 -0.046941 7.724197 2.676287 -1.652396 4.938298 10.592349 -6.211257 9.874264 4.299012 -0.000010 -0.000008 -27.284584 -14.093596 -109.283252 0.000010 -0.000003 -10.245102 221.134205 188.942007 181.649236 -0.000001 -0.000016 -12.703300 206.287149 177.522545 201.075865 -2.534597 -1.686399 5.194995 -0.265756 7.165107 10.463786 -4.144112 0.000004 -0.000002 -18.208258 13.247595 63.864994 0.000008 -0.000010 -10.116499 -26.899658 -12.844597 -15.266689 0.000005 0.000012 -12.937813 -7.526914 -5.674008 4.206796 2.175594 0.064501 -2.662902 -207.332933 -15.884252 108.294903 -0.000013 -0.000015 -18.585804 1.173095 -178.535066 -74.010038 -0.000001 -0.000001 -18.979502 429.009974 -10.975814 39.585287 -2.092396 -0.058103 -2.581202 15.256168 -1.592501 -5.904493 0.000010 0.000000 -18.665005 -748.267332 18.554496 -10.978265 -0.000005 -0.000011 -18.566601 721.848980 14.619004 4.787140
59.136997 68.353607 44.087894 559.961584 -1.181787 3.038562 -0.153517 1.163101 7.852398 -20.242637 2.151917 0.743495 0.000008 -0.000012 3.343302 3.868079 -5.500181 0.330208 -0.000001 -0.000009 7.785505 65.001319 -0.755027 -14.023793 0.000005 0.000000 2.173904 4.536122 -0.059861 7.675803 2.676297 -1.652402 4.938306 10.414698 -6.119445 9.829218 4.298985 0.000004 -0.000010 -27.563997 -14.170179 -109.443195 0.000000 0.000007 -10.245107 220.777013 188.757878 181.511034 -0.000001 0.000000 -12.703295 206.401691 177.484255 201.179875 -2.534594 -1.686404 5.195004 1.139230 4.963065 10.620294 -4.144102 0.000010 0.000000 -19.425755 15.557031 64.634087 -0.000013 -0.000014 -10.116483 -26.874250 -12.776478 -15.125451 0.000011 0.000001 -12.937799 -7.873838 -5.604560 4.254454 2.175581 0.064497 -2.662899 -207.467515 -15.932603 107.917624 -0.000012 -0.000006 -18.585794 1.356006 -178.582836 -74.300949 0.000009 0.000008 -18.979506 429.051856 -11.012849 39.583771 -2.092410 -0.058104 -2.581201 15.190117 -1.636929 -5.935110 -0.000002 0.000001 -18.665003 -748.061005 18.639482 -10.927421 0.000004 -0.000006 -18.566607 721.645822 14.490622 4.707203
59.106693 68.352997 44.081997 560.035951 -1.238452 3.084935 -0.153501 1.163102 7.852403 -20.312969 2.074678 0.747524 -0.000003 -0.000011 3.343296 4.009301 -5.437555 0.343019 0.000002 0.000010 7.785500 64.904118 -0.764218 -14.092434 0.000006 0.000005 2.173903 4.559808 -0.082586 7.647763 2.676298 -1.652395 4.938302 10.275134 -6.058807 9.772026 4.299015 0.000000 -0.000004 -27.835251 -14.174572 -109.584381 -0.000001 0.000000 -10.245104 220.608321 188.596126 181.420179 -0.000011 -0.000009 -12.703300 206.358661 177.461715 201.313105 -2.534593 -1.686392 5.194997 1.092835 4.962477 10.788581 -4.144091 0.000000 0.000012 -19.443143 15.452582 64.720905 0.000012 -0.000004 -10.116497 -26.774562 -12.664007 -14.903203 0.000002 0.000005 -12.937809 -8.158409 -5.569752 4.220099 2.175604 0.064510 -2.662906 -207.598860 -16.070047 107.509937 -0.000009 -0.000004 -18.585806 1.540913 -178.861481 -74.594340 0.000009 0.000002 -18.979504 428.889134 -11.041944 39.443694 -2.092398 -0.058107 -2.581202 15.146660 -1.662596 -6.012331 0.000005 -0.000013 -18.665009 -747.838068 18.720562 -10.850429 -0.000001 -0.000003 -18.566603 721.436600 14.361980 4.610667
